<svg width="21" height="18" viewBox="0 0 21 18" fill="none" xmlns="http://www.w3.org/2000/svg">
<path fill-rule="evenodd" clip-rule="evenodd" d="M0 1C0 0.447715 0.447715 0 1 0H3C3.45887 0 3.85885 0.312297 3.97014 0.757464L4.65578 3.5H19.875C20.1972 3.5 20.4997 3.65526 20.6875 3.91708C20.8754 4.17889 20.9255 4.51517 20.8223 4.8204L17.9473 13.3204C17.8099 13.7266 17.4288 14 17 14H5.5C5.02012 14 4.6079 13.6591 4.51779 13.1878L2.89805 4.71532L2.21922 2H1C0.447715 2 0 1.55228 0 1ZM5.08429 5.5L6.32693 12H16.2826L18.4811 5.5H5.08429Z" fill="#3B3B3B"/>
<path d="M9 16.5C9 17.3284 8.32843 18 7.5 18C6.67157 18 6 17.3284 6 16.5C6 15.6716 6.67157 15 7.5 15C8.32843 15 9 15.6716 9 16.5Z" fill="#3B3B3B"/>
<path d="M17 16.5C17 17.3284 16.3284 18 15.5 18C14.6716 18 14 17.3284 14 16.5C14 15.6716 14.6716 15 15.5 15C16.3284 15 17 15.6716 17 16.5Z" fill="#3B3B3B"/>
</svg>
