<svg width="21" height="19" viewBox="0 0 21 19" fill="none" xmlns="http://www.w3.org/2000/svg">
<path fill-rule="evenodd" clip-rule="evenodd" d="M3.96765 3.57574C2.69422 4.53081 2 5.77389 2 7.06275C2 8.24475 2.58184 9.38354 3.65834 10.3023L4.24598 10.8039L3.90902 11.4991C3.82098 11.6808 3.62873 12.0768 3.37378 12.5986C3.94978 12.2505 4.49267 11.9132 4.92976 11.6382L5.34997 11.3738L5.81461 11.5487C6.78856 11.9153 7.89903 12.1255 9.08366 12.1255C11.1205 12.1255 12.9259 11.5051 14.1997 10.5498C15.4731 9.59468 16.1673 8.3516 16.1673 7.06275C16.1673 5.77389 15.4731 4.53081 14.1997 3.57574C12.9259 2.62043 11.1205 2 9.08366 2C7.04687 2 5.24139 2.62043 3.96765 3.57574ZM2.76765 1.97574C4.41962 0.736758 6.65597 0 9.08366 0C11.5114 0 13.7477 0.736758 15.3997 1.97574C17.052 3.21495 18.1673 5.00324 18.1673 7.06275C18.1673 9.12226 17.052 10.9105 15.3997 12.1498C13.7477 13.3887 11.5114 14.1255 9.08366 14.1255C7.84867 14.1255 6.66639 13.9351 5.58639 13.5868C4.49992 14.2639 2.96543 15.1944 1.76821 15.8161L1.30823 14.9304L1.30732 14.9287M1.30823 14.9304L1.76821 15.8161C0.7815 16.3286 -0.173566 15.2597 0.28009 14.3499C0.86374 13.1793 1.4326 12.0172 1.78935 11.285C0.690615 10.136 0 8.68156 0 7.06275C0 5.00324 1.11537 3.21495 2.76765 1.97574" fill="#3B3B3B"/>
<path fill-rule="evenodd" clip-rule="evenodd" d="M3.73691 14.2292C4.04867 14.5619 4.39448 14.8699 4.76768 15.1498C6.41966 16.3887 8.656 17.1255 11.0837 17.1255C12.3187 17.1255 13.501 16.9351 14.581 16.5868C15.6674 17.264 17.2019 18.1944 18.3991 18.8161C19.3859 19.3286 20.3409 18.2597 19.8873 17.3499C19.3518 16.276 18.8289 15.2093 18.4707 14.475L18.4416 14.2176C19.5033 13.0794 20.1674 11.6501 20.1674 10.0627C20.1674 8.00324 19.052 6.21495 17.3997 4.97574C17.1989 4.82515 16.9895 4.68199 16.7722 4.54666L17.4918 5.79305L17.706 6.16414L17.5442 6.25756L17.7906 8.44311C17.7905 8.44284 17.7908 8.44338 17.7906 8.44311L17.5442 6.25756L16.5315 6.84226C17.0904 7.32349 17.5146 7.8665 17.7906 8.44311L18.0677 10.9052C17.859 11.7795 17.3267 12.6044 16.509 13.3023L15.9214 13.8039L16.2583 14.4991C16.3464 14.6808 16.5386 15.0768 16.7936 15.5986C16.2176 15.2505 15.6747 14.9132 15.2376 14.6382L14.8174 14.3738L14.3527 14.5487C13.3788 14.9153 12.2683 15.1255 11.0837 15.1255C9.0469 15.1255 7.24142 14.5051 5.96768 13.5498C5.81423 13.4347 5.6692 13.3154 5.53277 13.1924L3.73691 14.2292ZM18.4409 14.2184C18.4412 14.2181 18.4414 14.2179 18.4416 14.2176L18.068 10.9038C18.1339 10.6276 18.1674 10.3464 18.1674 10.0627C18.1674 9.50795 18.0387 8.96163 17.7906 8.44311L18.068 10.9038C18.0679 10.9043 18.0678 10.9047 18.0677 10.9052L18.4409 14.2184ZM18.4409 14.2184C18.4201 14.2407 18.3991 14.2629 18.378 14.285C18.4072 14.3448 18.4377 14.4075 18.4696 14.4729L18.8591 17.9304L18.86 17.9287L18.4707 14.475C18.4703 14.4743 18.47 14.4736 18.4696 14.4729L18.4409 14.2184Z" fill="#3B3B3B"/>
<path d="M6 7C6 7.55228 5.55228 8 5 8C4.44772 8 4 7.55228 4 7C4 6.44772 4.44772 6 5 6C5.55228 6 6 6.44772 6 7Z" fill="#3B3B3B"/>
<path d="M10 7C10 7.55228 9.55229 8 9 8C8.44771 8 8 7.55228 8 7C8 6.44772 8.44771 6 9 6C9.55229 6 10 6.44772 10 7Z" fill="#3B3B3B"/>
<path d="M14 7C14 7.55228 13.5523 8 13 8C12.4477 8 12 7.55228 12 7C12 6.44772 12.4477 6 13 6C13.5523 6 14 6.44772 14 7Z" fill="#3B3B3B"/>
</svg>
