<svg width="20" height="14" viewBox="0 0 20 14" fill="none" xmlns="http://www.w3.org/2000/svg">
<path fill-rule="evenodd" clip-rule="evenodd" d="M0 2C0 0.89543 0.895431 0 2 0H18C19.1046 0 20 0.89543 20 2V12C20 13.1046 19.1046 14 18 14H2C0.895432 14 0 13.1046 0 12V2ZM18 2L2 2V12H18V2Z" fill="#3B3B3B"/>
<path fill-rule="evenodd" clip-rule="evenodd" d="M1.2 1.4C1.53137 0.958172 2.15817 0.868629 2.6 1.2L10 6.75L17.4 1.2C17.8418 0.868629 18.4686 0.958172 18.8 1.4C19.1314 1.84183 19.0418 2.46863 18.6 2.8L10.6 8.8C10.2444 9.06667 9.75556 9.06667 9.4 8.8L1.4 2.8C0.958172 2.46863 0.868629 1.84183 1.2 1.4Z" fill="#3B3B3B"/>
</svg>
