<svg width="20" height="17" viewBox="0 0 20 17" fill="none" xmlns="http://www.w3.org/2000/svg">
<path fill-rule="evenodd" clip-rule="evenodd" d="M10 2C8.43965 2 7.00001 3.44042 7.00001 5.44444C7.00001 5.80223 7.15265 6.27415 7.48638 6.84006C7.81219 7.39255 8.26138 7.95214 8.73441 8.46399C9.18916 8.95605 9.64707 9.3838 10 9.69507C10.3529 9.3838 10.8109 8.95605 11.2656 8.46399C11.7386 7.95214 12.1878 7.39255 12.5136 6.84006C12.8474 6.27415 13 5.80223 13 5.44444C13 3.44042 11.5604 2 10 2ZM10 11C9.38732 11.7903 9.38697 11.7901 9.38697 11.7901L9.3854 11.7888L9.38202 11.7862L9.37099 11.7776L9.33245 11.7471C9.29967 11.721 9.25303 11.6835 9.19448 11.6356C9.07747 11.5397 8.91248 11.4017 8.71543 11.2288C8.32273 10.8842 7.79585 10.3952 7.2656 9.82141C6.73863 9.25119 6.18782 8.57531 5.76363 7.85601C5.34736 7.15014 5.00001 6.31396 5.00001 5.44444C5.00001 2.53927 7.14208 0 10 0C12.8579 0 15 2.53927 15 5.44444C15 6.31396 14.6526 7.15014 14.2364 7.85601C13.8122 8.57531 13.2614 9.25119 12.7344 9.82141C12.2042 10.3952 11.6773 10.8842 11.2846 11.2288C11.0875 11.4017 10.9225 11.5397 10.8055 11.6356C10.747 11.6835 10.7003 11.721 10.6676 11.7471L10.629 11.7776L10.618 11.7862L10.6146 11.7888L10.6135 11.7897C10.6135 11.7897 10.6127 11.7903 10 11ZM10 11L10.6135 11.7897L10 12.2653L9.38697 11.7901L10 11Z" fill="#3B3B3B"/>
<path d="M11 5C11 5.55228 10.5523 6 10 6C9.44772 6 9.00001 5.55228 9.00001 5C9.00001 4.44772 9.44772 4 10 4C10.5523 4 11 4.44772 11 5Z" fill="#3B3B3B"/>
<path fill-rule="evenodd" clip-rule="evenodd" d="M3.85898 8.06665C4.37446 8.26491 4.63161 8.84351 4.43335 9.35898L2.45604 14.5H17.544L15.5667 9.35898C15.3684 8.84351 15.6256 8.26491 16.141 8.06665C16.6565 7.8684 17.2351 8.12555 17.4334 8.64102L19.9334 15.141C20.0516 15.4485 20.0108 15.7946 19.8243 16.0661C19.6378 16.3377 19.3295 16.5 19 16.5H1.00001C0.67054 16.5 0.362216 16.3377 0.175694 16.0661C-0.0108284 15.7946 -0.0516113 15.4485 0.0666597 15.141L2.56666 8.64102C2.76492 8.12555 3.34351 7.8684 3.85898 8.06665Z" fill="#3B3B3B"/>
</svg>
