<svg width="21" height="20" viewBox="0 0 21 20" fill="none" xmlns="http://www.w3.org/2000/svg">
<path fill-rule="evenodd" clip-rule="evenodd" d="M4.98685 2.01381C4.46317 2.28193 3.85196 2.62714 3.33577 2.98473C3.07081 3.16827 2.8473 3.34383 2.67845 3.50286C2.49911 3.67175 2.43178 3.77536 2.41664 3.80676C2.05924 4.54783 1.91331 5.49926 2.05125 6.6199C2.18924 7.74087 2.60533 8.97387 3.29404 10.2219C3.98173 11.468 4.91308 12.6777 6.021 13.7541C7.12883 14.8304 8.37407 15.7354 9.65787 16.403C10.9433 17.0714 12.2159 17.4751 13.3759 17.6061C14.5366 17.7371 15.5247 17.5892 16.2938 17.232C16.4815 17.1449 16.8421 16.8506 17.2932 16.347C17.6857 15.9089 18.0693 15.4004 18.3601 14.9556L14.8155 12.1878L12.6916 14.4438C11.9344 15.2481 10.6687 15.2862 9.86444 14.5291L5.39056 10.3172C4.58632 9.56006 4.54815 8.2943 5.30529 7.49006L7.48961 5.16988L4.98685 2.01381ZM4.12076 0.210421C4.97702 -0.225223 5.97777 0.0445666 6.53933 0.752717L9.05669 3.92718C9.6736 4.70514 9.6264 5.81789 8.94582 6.54081L6.7615 8.861L11.2354 13.0729L13.3593 10.8169C14.0675 10.0646 15.2321 9.97559 16.0464 10.6115L19.6479 13.4237C20.3645 13.9833 20.6749 15.0437 20.1131 15.9275C19.7596 16.4836 19.2816 17.1248 18.783 17.6814C18.3131 18.206 17.722 18.7739 17.1362 19.046C15.9663 19.5893 14.5947 19.7564 13.1515 19.5934C11.7076 19.4304 10.1994 18.9388 8.73518 18.1774C7.26926 17.4152 5.86695 16.3929 4.62734 15.1886C3.3878 13.9843 2.33254 12.6189 1.54298 11.1882C0.754435 9.75929 0.24085 8.2828 0.0662356 6.86424C-0.108421 5.44534 0.0582142 4.09289 0.615188 2.93798C0.784226 2.58747 1.05231 2.28699 1.30725 2.0469C1.57266 1.79694 1.88226 1.55862 2.19687 1.34067C2.82634 0.904613 3.5416 0.505081 4.12076 0.210421Z" fill="#3B3B3B"/>
</svg>
